<svg xmlns="http://www.w3.org/2000/svg" viewBox="0 0 1195.00 407.50">
  <style>
    .key-bg { fill: #f5f5f5; stroke: #d4d4d4; stroke-width: 1; }
    .key-index { fill: #171717; font-family: ui-monospace, SFMono-Regular, "SF Mono", Menlo, Consolas, "Liberation Mono", monospace; font-weight: 700; text-anchor: middle; dominant-baseline: central; }
    .key-part { font-family: system-ui, -apple-system, BlinkMacSystemFont, "Segoe UI", Roboto, sans-serif; text-anchor: middle; dominant-baseline: central; }
    @media (prefers-color-scheme: dark) {
      .key-bg { fill: #2a2a2a; stroke: #404040; }
      .key-index { fill: #e5e5e5; }
    }
    .key-bg.part-0 { stroke: #f59e0b; }
    .key-part.part-0 { fill: #f59e0b; }
    .key-bg.part-1 { stroke: #14b8a6; }
    .key-part.part-1 { fill: #14b8a6; }
  </style>
  <g>
    <path class="key-bg part-0" d="M 96.00,47.90 L 154.00,47.90 Q 158.00,47.90 158.00,51.90 L 158.00,109.90 Q 158.00,113.90 154.00,113.90 L 96.00,113.90 Q 92.00,113.90 92.00,109.90 L 92.00,51.90 Q 92.00,47.90 96.00,47.90 Z" />
    <path class="key-bg part-0" d="M 166.00,30.40 L 224.00,30.40 Q 228.00,30.40 228.00,34.40 L 228.00,92.40 Q 228.00,96.40 224.00,96.40 L 166.00,96.40 Q 162.00,96.40 162.00,92.40 L 162.00,34.40 Q 162.00,30.40 166.00,30.40 Z" />
    <path class="key-bg part-0" d="M 236.00,22.00 L 294.00,22.00 Q 298.00,22.00 298.00,26.00 L 298.00,84.00 Q 298.00,88.00 294.00,88.00 L 236.00,88.00 Q 232.00,88.00 232.00,84.00 L 232.00,26.00 Q 232.00,22.00 236.00,22.00 Z" />
    <path class="key-bg part-0" d="M 306.00,30.40 L 364.00,30.40 Q 368.00,30.40 368.00,34.40 L 368.00,92.40 Q 368.00,96.40 364.00,96.40 L 306.00,96.40 Q 302.00,96.40 302.00,92.40 L 302.00,34.40 Q 302.00,30.40 306.00,30.40 Z" />
    <path class="key-bg part-0" d="M 376.00,39.50 L 434.00,39.50 Q 438.00,39.50 438.00,43.50 L 438.00,101.50 Q 438.00,105.50 434.00,105.50 L 376.00,105.50 Q 372.00,105.50 372.00,101.50 L 372.00,43.50 Q 372.00,39.50 376.00,39.50 Z" />
    <path class="key-bg part-1" d="M 761.00,39.50 L 819.00,39.50 Q 823.00,39.50 823.00,43.50 L 823.00,101.50 Q 823.00,105.50 819.00,105.50 L 761.00,105.50 Q 757.00,105.50 757.00,101.50 L 757.00,43.50 Q 757.00,39.50 761.00,39.50 Z" />
    <path class="key-bg part-1" d="M 831.00,30.40 L 889.00,30.40 Q 893.00,30.40 893.00,34.40 L 893.00,92.40 Q 893.00,96.40 889.00,96.40 L 831.00,96.40 Q 827.00,96.40 827.00,92.40 L 827.00,34.40 Q 827.00,30.40 831.00,30.40 Z" />
    <path class="key-bg part-1" d="M 901.00,22.00 L 959.00,22.00 Q 963.00,22.00 963.00,26.00 L 963.00,84.00 Q 963.00,88.00 959.00,88.00 L 901.00,88.00 Q 897.00,88.00 897.00,84.00 L 897.00,26.00 Q 897.00,22.00 901.00,22.00 Z" />
    <path class="key-bg part-1" d="M 971.00,30.40 L 1029.00,30.40 Q 1033.00,30.40 1033.00,34.40 L 1033.00,92.40 Q 1033.00,96.40 1029.00,96.40 L 971.00,96.40 Q 967.00,96.40 967.00,92.40 L 967.00,34.40 Q 967.00,30.40 971.00,30.40 Z" />
    <path class="key-bg part-1" d="M 1041.00,47.90 L 1099.00,47.90 Q 1103.00,47.90 1103.00,51.90 L 1103.00,109.90 Q 1103.00,113.90 1099.00,113.90 L 1041.00,113.90 Q 1037.00,113.90 1037.00,109.90 L 1037.00,51.90 Q 1037.00,47.90 1041.00,47.90 Z" />
    <path class="key-bg part-0" d="M 26.00,127.00 L 84.00,127.00 Q 88.00,127.00 88.00,131.00 L 88.00,189.00 Q 88.00,193.00 84.00,193.00 L 26.00,193.00 Q 22.00,193.00 22.00,189.00 L 22.00,131.00 Q 22.00,127.00 26.00,127.00 Z" />
    <path class="key-bg part-0" d="M 96.00,117.90 L 154.00,117.90 Q 158.00,117.90 158.00,121.90 L 158.00,179.90 Q 158.00,183.90 154.00,183.90 L 96.00,183.90 Q 92.00,183.90 92.00,179.90 L 92.00,121.90 Q 92.00,117.90 96.00,117.90 Z" />
    <path class="key-bg part-0" d="M 166.00,100.40 L 224.00,100.40 Q 228.00,100.40 228.00,104.40 L 228.00,162.40 Q 228.00,166.40 224.00,166.40 L 166.00,166.40 Q 162.00,166.40 162.00,162.40 L 162.00,104.40 Q 162.00,100.40 166.00,100.40 Z" />
    <path class="key-bg part-0" d="M 236.00,92.00 L 294.00,92.00 Q 298.00,92.00 298.00,96.00 L 298.00,154.00 Q 298.00,158.00 294.00,158.00 L 236.00,158.00 Q 232.00,158.00 232.00,154.00 L 232.00,96.00 Q 232.00,92.00 236.00,92.00 Z" />
    <path class="key-bg part-0" d="M 306.00,100.40 L 364.00,100.40 Q 368.00,100.40 368.00,104.40 L 368.00,162.40 Q 368.00,166.40 364.00,166.40 L 306.00,166.40 Q 302.00,166.40 302.00,162.40 L 302.00,104.40 Q 302.00,100.40 306.00,100.40 Z" />
    <path class="key-bg part-0" d="M 376.00,109.50 L 434.00,109.50 Q 438.00,109.50 438.00,113.50 L 438.00,171.50 Q 438.00,175.50 434.00,175.50 L 376.00,175.50 Q 372.00,175.50 372.00,171.50 L 372.00,113.50 Q 372.00,109.50 376.00,109.50 Z" />
    <path class="key-bg part-1" d="M 761.00,109.50 L 819.00,109.50 Q 823.00,109.50 823.00,113.50 L 823.00,171.50 Q 823.00,175.50 819.00,175.50 L 761.00,175.50 Q 757.00,175.50 757.00,171.50 L 757.00,113.50 Q 757.00,109.50 761.00,109.50 Z" />
    <path class="key-bg part-1" d="M 831.00,100.40 L 889.00,100.40 Q 893.00,100.40 893.00,104.40 L 893.00,162.40 Q 893.00,166.40 889.00,166.40 L 831.00,166.40 Q 827.00,166.40 827.00,162.40 L 827.00,104.40 Q 827.00,100.40 831.00,100.40 Z" />
    <path class="key-bg part-1" d="M 901.00,92.00 L 959.00,92.00 Q 963.00,92.00 963.00,96.00 L 963.00,154.00 Q 963.00,158.00 959.00,158.00 L 901.00,158.00 Q 897.00,158.00 897.00,154.00 L 897.00,96.00 Q 897.00,92.00 901.00,92.00 Z" />
    <path class="key-bg part-1" d="M 971.00,100.40 L 1029.00,100.40 Q 1033.00,100.40 1033.00,104.40 L 1033.00,162.40 Q 1033.00,166.40 1029.00,166.40 L 971.00,166.40 Q 967.00,166.40 967.00,162.40 L 967.00,104.40 Q 967.00,100.40 971.00,100.40 Z" />
    <path class="key-bg part-1" d="M 1041.00,117.90 L 1099.00,117.90 Q 1103.00,117.90 1103.00,121.90 L 1103.00,179.90 Q 1103.00,183.90 1099.00,183.90 L 1041.00,183.90 Q 1037.00,183.90 1037.00,179.90 L 1037.00,121.90 Q 1037.00,117.90 1041.00,117.90 Z" />
    <path class="key-bg part-1" d="M 1111.00,127.00 L 1169.00,127.00 Q 1173.00,127.00 1173.00,131.00 L 1173.00,189.00 Q 1173.00,193.00 1169.00,193.00 L 1111.00,193.00 Q 1107.00,193.00 1107.00,189.00 L 1107.00,131.00 Q 1107.00,127.00 1111.00,127.00 Z" />
    <path class="key-bg part-0" d="M 26.00,197.00 L 84.00,197.00 Q 88.00,197.00 88.00,201.00 L 88.00,259.00 Q 88.00,263.00 84.00,263.00 L 26.00,263.00 Q 22.00,263.00 22.00,259.00 L 22.00,201.00 Q 22.00,197.00 26.00,197.00 Z" />
    <path class="key-bg part-0" d="M 96.00,187.90 L 154.00,187.90 Q 158.00,187.90 158.00,191.90 L 158.00,249.90 Q 158.00,253.90 154.00,253.90 L 96.00,253.90 Q 92.00,253.90 92.00,249.90 L 92.00,191.90 Q 92.00,187.90 96.00,187.90 Z" />
    <path class="key-bg part-0" d="M 166.00,170.40 L 224.00,170.40 Q 228.00,170.40 228.00,174.40 L 228.00,232.40 Q 228.00,236.40 224.00,236.40 L 166.00,236.40 Q 162.00,236.40 162.00,232.40 L 162.00,174.40 Q 162.00,170.40 166.00,170.40 Z" />
    <path class="key-bg part-0" d="M 236.00,162.00 L 294.00,162.00 Q 298.00,162.00 298.00,166.00 L 298.00,224.00 Q 298.00,228.00 294.00,228.00 L 236.00,228.00 Q 232.00,228.00 232.00,224.00 L 232.00,166.00 Q 232.00,162.00 236.00,162.00 Z" />
    <path class="key-bg part-0" d="M 306.00,170.40 L 364.00,170.40 Q 368.00,170.40 368.00,174.40 L 368.00,232.40 Q 368.00,236.40 364.00,236.40 L 306.00,236.40 Q 302.00,236.40 302.00,232.40 L 302.00,174.40 Q 302.00,170.40 306.00,170.40 Z" />
    <path class="key-bg part-0" d="M 376.00,179.50 L 434.00,179.50 Q 438.00,179.50 438.00,183.50 L 438.00,241.50 Q 438.00,245.50 434.00,245.50 L 376.00,245.50 Q 372.00,245.50 372.00,241.50 L 372.00,183.50 Q 372.00,179.50 376.00,179.50 Z" />
    <path class="key-bg part-1" d="M 761.00,179.50 L 819.00,179.50 Q 823.00,179.50 823.00,183.50 L 823.00,241.50 Q 823.00,245.50 819.00,245.50 L 761.00,245.50 Q 757.00,245.50 757.00,241.50 L 757.00,183.50 Q 757.00,179.50 761.00,179.50 Z" />
    <path class="key-bg part-1" d="M 831.00,170.40 L 889.00,170.40 Q 893.00,170.40 893.00,174.40 L 893.00,232.40 Q 893.00,236.40 889.00,236.40 L 831.00,236.40 Q 827.00,236.40 827.00,232.40 L 827.00,174.40 Q 827.00,170.40 831.00,170.40 Z" />
    <path class="key-bg part-1" d="M 901.00,162.00 L 959.00,162.00 Q 963.00,162.00 963.00,166.00 L 963.00,224.00 Q 963.00,228.00 959.00,228.00 L 901.00,228.00 Q 897.00,228.00 897.00,224.00 L 897.00,166.00 Q 897.00,162.00 901.00,162.00 Z" />
    <path class="key-bg part-1" d="M 971.00,170.40 L 1029.00,170.40 Q 1033.00,170.40 1033.00,174.40 L 1033.00,232.40 Q 1033.00,236.40 1029.00,236.40 L 971.00,236.40 Q 967.00,236.40 967.00,232.40 L 967.00,174.40 Q 967.00,170.40 971.00,170.40 Z" />
    <path class="key-bg part-1" d="M 1041.00,187.90 L 1099.00,187.90 Q 1103.00,187.90 1103.00,191.90 L 1103.00,249.90 Q 1103.00,253.90 1099.00,253.90 L 1041.00,253.90 Q 1037.00,253.90 1037.00,249.90 L 1037.00,191.90 Q 1037.00,187.90 1041.00,187.90 Z" />
    <path class="key-bg part-1" d="M 1111.00,197.00 L 1169.00,197.00 Q 1173.00,197.00 1173.00,201.00 L 1173.00,259.00 Q 1173.00,263.00 1169.00,263.00 L 1111.00,263.00 Q 1107.00,263.00 1107.00,259.00 L 1107.00,201.00 Q 1107.00,197.00 1111.00,197.00 Z" />
    <path class="key-bg part-0" d="M 26.00,267.00 L 84.00,267.00 Q 88.00,267.00 88.00,271.00 L 88.00,329.00 Q 88.00,333.00 84.00,333.00 L 26.00,333.00 Q 22.00,333.00 22.00,329.00 L 22.00,271.00 Q 22.00,267.00 26.00,267.00 Z" />
    <path class="key-bg part-0" d="M 96.00,257.90 L 154.00,257.90 Q 158.00,257.90 158.00,261.90 L 158.00,319.90 Q 158.00,323.90 154.00,323.90 L 96.00,323.90 Q 92.00,323.90 92.00,319.90 L 92.00,261.90 Q 92.00,257.90 96.00,257.90 Z" />
    <path class="key-bg part-0" d="M 166.00,240.40 L 224.00,240.40 Q 228.00,240.40 228.00,244.40 L 228.00,302.40 Q 228.00,306.40 224.00,306.40 L 166.00,306.40 Q 162.00,306.40 162.00,302.40 L 162.00,244.40 Q 162.00,240.40 166.00,240.40 Z" />
    <path class="key-bg part-0" d="M 236.00,232.00 L 294.00,232.00 Q 298.00,232.00 298.00,236.00 L 298.00,294.00 Q 298.00,298.00 294.00,298.00 L 236.00,298.00 Q 232.00,298.00 232.00,294.00 L 232.00,236.00 Q 232.00,232.00 236.00,232.00 Z" />
    <path class="key-bg part-0" d="M 306.00,240.40 L 364.00,240.40 Q 368.00,240.40 368.00,244.40 L 368.00,302.40 Q 368.00,306.40 364.00,306.40 L 306.00,306.40 Q 302.00,306.40 302.00,302.40 L 302.00,244.40 Q 302.00,240.40 306.00,240.40 Z" />
    <path class="key-bg part-0" d="M 376.00,249.50 L 434.00,249.50 Q 438.00,249.50 438.00,253.50 L 438.00,311.50 Q 438.00,315.50 434.00,315.50 L 376.00,315.50 Q 372.00,315.50 372.00,311.50 L 372.00,253.50 Q 372.00,249.50 376.00,249.50 Z" />
    <path class="key-bg part-1" d="M 761.00,249.50 L 819.00,249.50 Q 823.00,249.50 823.00,253.50 L 823.00,311.50 Q 823.00,315.50 819.00,315.50 L 761.00,315.50 Q 757.00,315.50 757.00,311.50 L 757.00,253.50 Q 757.00,249.50 761.00,249.50 Z" />
    <path class="key-bg part-1" d="M 831.00,240.40 L 889.00,240.40 Q 893.00,240.40 893.00,244.40 L 893.00,302.40 Q 893.00,306.40 889.00,306.40 L 831.00,306.40 Q 827.00,306.40 827.00,302.40 L 827.00,244.40 Q 827.00,240.40 831.00,240.40 Z" />
    <path class="key-bg part-1" d="M 901.00,232.00 L 959.00,232.00 Q 963.00,232.00 963.00,236.00 L 963.00,294.00 Q 963.00,298.00 959.00,298.00 L 901.00,298.00 Q 897.00,298.00 897.00,294.00 L 897.00,236.00 Q 897.00,232.00 901.00,232.00 Z" />
    <path class="key-bg part-1" d="M 971.00,240.40 L 1029.00,240.40 Q 1033.00,240.40 1033.00,244.40 L 1033.00,302.40 Q 1033.00,306.40 1029.00,306.40 L 971.00,306.40 Q 967.00,306.40 967.00,302.40 L 967.00,244.40 Q 967.00,240.40 971.00,240.40 Z" />
    <path class="key-bg part-1" d="M 1041.00,257.90 L 1099.00,257.90 Q 1103.00,257.90 1103.00,261.90 L 1103.00,319.90 Q 1103.00,323.90 1099.00,323.90 L 1041.00,323.90 Q 1037.00,323.90 1037.00,319.90 L 1037.00,261.90 Q 1037.00,257.90 1041.00,257.90 Z" />
    <path class="key-bg part-1" d="M 1111.00,267.00 L 1169.00,267.00 Q 1173.00,267.00 1173.00,271.00 L 1173.00,329.00 Q 1173.00,333.00 1169.00,333.00 L 1111.00,333.00 Q 1107.00,333.00 1107.00,329.00 L 1107.00,271.00 Q 1107.00,267.00 1111.00,267.00 Z" />
    <path class="key-bg part-0" d="M 236.00,310.40 L 294.00,310.40 Q 298.00,310.40 298.00,314.40 L 298.00,372.40 Q 298.00,376.40 294.00,376.40 L 236.00,376.40 Q 232.00,376.40 232.00,372.40 L 232.00,314.40 Q 232.00,310.40 236.00,310.40 Z" />
    <path class="key-bg part-0" d="M 306.00,312.50 L 364.00,312.50 Q 368.00,312.50 368.00,316.50 L 368.00,374.50 Q 368.00,378.50 364.00,378.50 L 306.00,378.50 Q 302.00,378.50 302.00,374.50 L 302.00,316.50 Q 302.00,312.50 306.00,312.50 Z" />
    <path class="key-bg part-0" d="M 376.00,319.50 L 434.00,319.50 Q 438.00,319.50 438.00,323.50 L 438.00,381.50 Q 438.00,385.50 434.00,385.50 L 376.00,385.50 Q 372.00,385.50 372.00,381.50 L 372.00,323.50 Q 372.00,319.50 376.00,319.50 Z" />
    <path class="key-bg part-1" d="M 761.00,319.50 L 819.00,319.50 Q 823.00,319.50 823.00,323.50 L 823.00,381.50 Q 823.00,385.50 819.00,385.50 L 761.00,385.50 Q 757.00,385.50 757.00,381.50 L 757.00,323.50 Q 757.00,319.50 761.00,319.50 Z" />
    <path class="key-bg part-1" d="M 831.00,312.50 L 889.00,312.50 Q 893.00,312.50 893.00,316.50 L 893.00,374.50 Q 893.00,378.50 889.00,378.50 L 831.00,378.50 Q 827.00,378.50 827.00,374.50 L 827.00,316.50 Q 827.00,312.50 831.00,312.50 Z" />
    <path class="key-bg part-1" d="M 901.00,312.50 L 959.00,312.50 Q 963.00,312.50 963.00,316.50 L 963.00,374.50 Q 963.00,378.50 959.00,378.50 L 901.00,378.50 Q 897.00,378.50 897.00,374.50 L 897.00,316.50 Q 897.00,312.50 901.00,312.50 Z" />
  </g>
  <g>
    <text class="key-index" x="125.00" y="69.26" font-size="26">0</text>
    <text class="key-part part-0" x="125.00" y="96.54" font-size="18">left</text>
    <text class="key-index" x="195.00" y="51.76" font-size="26">1</text>
    <text class="key-part part-0" x="195.00" y="79.04" font-size="18">left</text>
    <text class="key-index" x="265.00" y="43.36" font-size="26">2</text>
    <text class="key-part part-0" x="265.00" y="70.64" font-size="18">left</text>
    <text class="key-index" x="335.00" y="51.76" font-size="26">3</text>
    <text class="key-part part-0" x="335.00" y="79.04" font-size="18">left</text>
    <text class="key-index" x="405.00" y="60.86" font-size="26">4</text>
    <text class="key-part part-0" x="405.00" y="88.14" font-size="18">left</text>
    <text class="key-index" x="790.00" y="60.86" font-size="26">5</text>
    <text class="key-part part-1" x="790.00" y="88.14" font-size="18">right</text>
    <text class="key-index" x="860.00" y="51.76" font-size="26">6</text>
    <text class="key-part part-1" x="860.00" y="79.04" font-size="18">right</text>
    <text class="key-index" x="930.00" y="43.36" font-size="26">7</text>
    <text class="key-part part-1" x="930.00" y="70.64" font-size="18">right</text>
    <text class="key-index" x="1000.00" y="51.76" font-size="26">8</text>
    <text class="key-part part-1" x="1000.00" y="79.04" font-size="18">right</text>
    <text class="key-index" x="1070.00" y="69.26" font-size="26">9</text>
    <text class="key-part part-1" x="1070.00" y="96.54" font-size="18">right</text>
    <text class="key-index" x="55.00" y="148.36" font-size="26">10</text>
    <text class="key-part part-0" x="55.00" y="175.64" font-size="18">left</text>
    <text class="key-index" x="125.00" y="139.26" font-size="26">11</text>
    <text class="key-part part-0" x="125.00" y="166.54" font-size="18">left</text>
    <text class="key-index" x="195.00" y="121.76" font-size="26">12</text>
    <text class="key-part part-0" x="195.00" y="149.04" font-size="18">left</text>
    <text class="key-index" x="265.00" y="113.36" font-size="26">13</text>
    <text class="key-part part-0" x="265.00" y="140.64" font-size="18">left</text>
    <text class="key-index" x="335.00" y="121.76" font-size="26">14</text>
    <text class="key-part part-0" x="335.00" y="149.04" font-size="18">left</text>
    <text class="key-index" x="405.00" y="130.86" font-size="26">15</text>
    <text class="key-part part-0" x="405.00" y="158.14" font-size="18">left</text>
    <text class="key-index" x="790.00" y="130.86" font-size="26">16</text>
    <text class="key-part part-1" x="790.00" y="158.14" font-size="18">right</text>
    <text class="key-index" x="860.00" y="121.76" font-size="26">17</text>
    <text class="key-part part-1" x="860.00" y="149.04" font-size="18">right</text>
    <text class="key-index" x="930.00" y="113.36" font-size="26">18</text>
    <text class="key-part part-1" x="930.00" y="140.64" font-size="18">right</text>
    <text class="key-index" x="1000.00" y="121.76" font-size="26">19</text>
    <text class="key-part part-1" x="1000.00" y="149.04" font-size="18">right</text>
    <text class="key-index" x="1070.00" y="139.26" font-size="26">20</text>
    <text class="key-part part-1" x="1070.00" y="166.54" font-size="18">right</text>
    <text class="key-index" x="1140.00" y="148.36" font-size="26">21</text>
    <text class="key-part part-1" x="1140.00" y="175.64" font-size="18">right</text>
    <text class="key-index" x="55.00" y="218.36" font-size="26">22</text>
    <text class="key-part part-0" x="55.00" y="245.64" font-size="18">left</text>
    <text class="key-index" x="125.00" y="209.26" font-size="26">23</text>
    <text class="key-part part-0" x="125.00" y="236.54" font-size="18">left</text>
    <text class="key-index" x="195.00" y="191.76" font-size="26">24</text>
    <text class="key-part part-0" x="195.00" y="219.04" font-size="18">left</text>
    <text class="key-index" x="265.00" y="183.36" font-size="26">25</text>
    <text class="key-part part-0" x="265.00" y="210.64" font-size="18">left</text>
    <text class="key-index" x="335.00" y="191.76" font-size="26">26</text>
    <text class="key-part part-0" x="335.00" y="219.04" font-size="18">left</text>
    <text class="key-index" x="405.00" y="200.86" font-size="26">27</text>
    <text class="key-part part-0" x="405.00" y="228.14" font-size="18">left</text>
    <text class="key-index" x="790.00" y="200.86" font-size="26">28</text>
    <text class="key-part part-1" x="790.00" y="228.14" font-size="18">right</text>
    <text class="key-index" x="860.00" y="191.76" font-size="26">29</text>
    <text class="key-part part-1" x="860.00" y="219.04" font-size="18">right</text>
    <text class="key-index" x="930.00" y="183.36" font-size="26">30</text>
    <text class="key-part part-1" x="930.00" y="210.64" font-size="18">right</text>
    <text class="key-index" x="1000.00" y="191.76" font-size="26">31</text>
    <text class="key-part part-1" x="1000.00" y="219.04" font-size="18">right</text>
    <text class="key-index" x="1070.00" y="209.26" font-size="26">32</text>
    <text class="key-part part-1" x="1070.00" y="236.54" font-size="18">right</text>
    <text class="key-index" x="1140.00" y="218.36" font-size="26">33</text>
    <text class="key-part part-1" x="1140.00" y="245.64" font-size="18">right</text>
    <text class="key-index" x="55.00" y="288.36" font-size="26">34</text>
    <text class="key-part part-0" x="55.00" y="315.64" font-size="18">left</text>
    <text class="key-index" x="125.00" y="279.26" font-size="26">35</text>
    <text class="key-part part-0" x="125.00" y="306.54" font-size="18">left</text>
    <text class="key-index" x="195.00" y="261.76" font-size="26">36</text>
    <text class="key-part part-0" x="195.00" y="289.04" font-size="18">left</text>
    <text class="key-index" x="265.00" y="253.36" font-size="26">37</text>
    <text class="key-part part-0" x="265.00" y="280.64" font-size="18">left</text>
    <text class="key-index" x="335.00" y="261.76" font-size="26">38</text>
    <text class="key-part part-0" x="335.00" y="289.04" font-size="18">left</text>
    <text class="key-index" x="405.00" y="270.86" font-size="26">39</text>
    <text class="key-part part-0" x="405.00" y="298.14" font-size="18">left</text>
    <text class="key-index" x="790.00" y="270.86" font-size="26">40</text>
    <text class="key-part part-1" x="790.00" y="298.14" font-size="18">right</text>
    <text class="key-index" x="860.00" y="261.76" font-size="26">41</text>
    <text class="key-part part-1" x="860.00" y="289.04" font-size="18">right</text>
    <text class="key-index" x="930.00" y="253.36" font-size="26">42</text>
    <text class="key-part part-1" x="930.00" y="280.64" font-size="18">right</text>
    <text class="key-index" x="1000.00" y="261.76" font-size="26">43</text>
    <text class="key-part part-1" x="1000.00" y="289.04" font-size="18">right</text>
    <text class="key-index" x="1070.00" y="279.26" font-size="26">44</text>
    <text class="key-part part-1" x="1070.00" y="306.54" font-size="18">right</text>
    <text class="key-index" x="1140.00" y="288.36" font-size="26">45</text>
    <text class="key-part part-1" x="1140.00" y="315.64" font-size="18">right</text>
    <text class="key-index" x="265.00" y="331.76" font-size="26">46</text>
    <text class="key-part part-0" x="265.00" y="359.04" font-size="18">left</text>
    <text class="key-index" x="335.00" y="333.86" font-size="26">47</text>
    <text class="key-part part-0" x="335.00" y="361.14" font-size="18">left</text>
    <text class="key-index" x="405.00" y="340.86" font-size="26">48</text>
    <text class="key-part part-0" x="405.00" y="368.14" font-size="18">left</text>
    <text class="key-index" x="790.00" y="340.86" font-size="26">49</text>
    <text class="key-part part-1" x="790.00" y="368.14" font-size="18">right</text>
    <text class="key-index" x="860.00" y="333.86" font-size="26">50</text>
    <text class="key-part part-1" x="860.00" y="361.14" font-size="18">right</text>
    <text class="key-index" x="930.00" y="333.86" font-size="26">51</text>
    <text class="key-part part-1" x="930.00" y="361.14" font-size="18">right</text>
  </g>
</svg>
